Poster: 
http://imgr.us/images/15usepiyr2p1gngps3s.jpg

Info:


Format : MPEG-PS
File size : 711 MiB
Duration : 2h 9mn
Overall bit rate : 770 Kbps



Video
ID : 224 (0xE0)
Format : MPEG Video
Format version : Version 2
Format profile : Main@Main
Format settings, BVOP : Yes
Format settings, Matrix : Default
Duration : 2h 9mn
Bit rate mode : Variable
Bit rate : 627 Kbps
Maximum bit rate : 9 672 Kbps
Width : 352 pixels
Height : 288 pixels
Display aspect ratio : 4:3
Frame rate : 25.000 fps
Standard : PAL
Color space : YUV
Chroma subsampling : 4:2:0
Bit depth : 8 bits
Scan type : Progressive
Compression mode : Lossy
Bits/(Pixel*Frame) : 0.247
Stream size : 578 MiB (81%)


Audio
ID : 192 (0xC0)
Format : MPEG Audio
Format version : Version 1
Format profile : Layer 2
Duration : 2h 9mn
Bit rate mode : Constant
Bit rate : 128 Kbps
Channel(s) : 2 channels
Sampling rate : 48.0 KHz
Compression mode : Lossy
Delay relative to video : -600ms
Stream size : 118 MiB (17%)


Screens: 
http://imgr.us/images/etiz3l9rd7gov3lai3p1.jpg 
http://imgr.us/images/zwmfhw0kbr9kajpdf136.jpg 
http://imgr.us/images/3llwkmny49ohgbmc7kj.jpg 
http://imgr.us/images/gdyhk8m7fxcqdpoqb3dj.jpg 
http://imgr.us/images/ipqy9yyoy2hfkfn0rb.jpg



